<?xml version="1.0" standalone="no"?><!DOCTYPE svg PUBLIC "-//W3C//DTD SVG 1.1//EN" "http://www.w3.org/Graphics/SVG/1.1/DTD/svg11.dtd"><svg t="1592901278882" class="icon" viewBox="0 0 1024 1024" version="1.1" xmlns="http://www.w3.org/2000/svg" p-id="1519" xmlns:xlink="http://www.w3.org/1999/xlink" width="48" height="48"><defs><style type="text/css"></style></defs><path d="M142.1 420.1V188.8l230.7-0.1 0.1 231.3-230.8 0.1z m230.8-308.4H142c-42.4 0.1-76.7 34.5-76.8 77v231.4c0.1 42.5 34.4 76.9 76.8 77h230.9c42.4-0.1 76.7-34.5 76.8-77V188.7c-0.1-42.5-34.4-76.9-76.8-77zM142.1 882.5V651.2l230.7-0.1 0.1 231.3-230.8 0.1z m230.8-308.4H142c-42.4 0.1-76.7 34.5-76.8 77v231.4c0.1 42.5 34.4 76.9 76.8 76.9h230.9c42.4-0.1 76.7-34.5 76.8-77V651.1c-0.1-42.4-34.4-76.9-76.8-77zM718.8 468L555.6 304.4l163-163.6L882 304.3 718.8 468z m217.5-218L773 86.4c-30-30-78.6-30-108.6 0L501.2 250c-14.4 14.4-22.4 33.9-22.4 54.3-0.1 20.5 7.9 40.1 22.4 54.6l163.3 163.7c30 30 78.6 30 108.6 0l163.3-163.7c29.9-30.2 29.9-78.9-0.1-108.9zM603.4 882.5V651.2l230.7-0.1 0.1 231.3-230.8 0.1z m230.8-308.4H603.3c-42.4 0.1-76.7 34.5-76.8 77v231.4c0.1 42.5 34.4 76.9 76.8 76.9h230.9c42.4-0.1 76.7-34.5 76.8-77V651.1c-0.1-42.4-34.4-76.9-76.8-77z m0 0" fill="#666666" p-id="1520"></path></svg>