<?xml version="1.0" standalone="no"?><!DOCTYPE svg PUBLIC "-//W3C//DTD SVG 1.1//EN" "http://www.w3.org/Graphics/SVG/1.1/DTD/svg11.dtd"><svg t="1592901859532" class="icon" viewBox="0 0 1119 1024" version="1.1" xmlns="http://www.w3.org/2000/svg" p-id="3109" xmlns:xlink="http://www.w3.org/1999/xlink" width="52.453125" height="48"><defs><style type="text/css"></style></defs><path d="M296.615344 17.075701c11.679029 17.278564 7.58337 40.636622-9.247231 52.891603a476.216415 476.216415 0 0 0-210.062539 395.167152c0 249.675246 193.071951 455.002178 437.755612 474.744537v-306.150552a145.523903 145.523903 0 1 1 77.273576 0v306.150552c244.715658-19.774356 437.851604-225.069291 437.851604-474.776535a476.344404 476.344404 0 0 0-210.030541-395.167151A38.652787 38.652787 0 0 1 863.384231 6.004621a553.330004 553.330004 0 0 1 244.139706 459.161832c0 305.350618-248.427349 553.74597-553.777967 553.74597S0 770.485073 0 465.102458A553.521988 553.521988 0 0 1 244.139706 5.972624a38.652787 38.652787 0 0 1 52.475638 11.103077z m146.035861 241.32394c8.863263 18.878431 1.119907 41.372561-17.470548 50.843773a202.319182 202.319182 0 0 0-116.150345 182.544826 201.135281 201.135281 0 0 0 123.029773 185.584573 38.652787 38.652787 0 0 1-30.0775 71.09809 278.280868 278.280868 0 0 1-170.22585-256.71466 279.848738 279.848738 0 0 1 160.626648-252.459015 38.652787 38.652787 0 0 1 50.267822 19.102413z m276.553011-19.070415a279.848738 279.848738 0 0 1 160.626648 252.427017 278.280868 278.280868 0 0 1-170.22585 256.71466 38.4928 38.4928 0 0 1-50.619792-20.478297 38.652787 38.652787 0 0 1 20.542292-50.619793 201.135281 201.135281 0 0 0 122.997776-185.584573 202.319182 202.319182 0 0 0-116.150345-182.544826 38.652787 38.652787 0 0 1 32.829271-69.914188z m-200.047371 193.775892a68.250327 68.250327 0 0 0-33.661202 60.474973 68.218329 68.218329 0 1 0 136.500654 0 68.250327 68.250327 0 0 0-102.839452-60.474973z" fill="#444444" p-id="3110"></path></svg>