<?xml version="1.0" standalone="no"?><!DOCTYPE svg PUBLIC "-//W3C//DTD SVG 1.1//EN" "http://www.w3.org/Graphics/SVG/1.1/DTD/svg11.dtd"><svg t="1592901411846" class="icon" viewBox="0 0 1314 1024" version="1.1" xmlns="http://www.w3.org/2000/svg" p-id="2297" xmlns:xlink="http://www.w3.org/1999/xlink" width="61.59375" height="48"><defs><style type="text/css"></style></defs><path d="M364.357818 188.637091l10.007273-17.338182L163.234909 49.408l28.148364-48.756364L402.501818 122.554182l2.909091-5.038546a3.351273 3.351273 0 0 1 4.584727-1.245091l73.588364 42.484364 26.472727-45.847273a65.140364 65.140364 0 0 1 88.936728-23.924363l679.621818 392.378182a65.128727 65.128727 0 0 1 23.749818 88.983272l-237.358546 411.112728a65.140364 65.140364 0 0 1-88.936727 23.924363L296.459636 613.003636a65.128727 65.128727 0 0 1-23.738181-88.983272l130.106181-225.373091-73.576727-42.484364a3.293091 3.293091 0 0 1-1.221818-4.596364l12.753454-22.097454c-29.835636-20.759273-62.952727-39.936-96.081454-53.527273-34.978909-14.336-66.315636-20.747636-91.915636-17.757091-69.201455 8.064-92.578909 36.445091-102.56291 95.104-6.178909 36.270545 28.171636 81.070545 89.076364 103.214546 85.213091 30.964364 119.086545 64.651636 104.727273 118.935272-4.573091 17.268364-17.442909 30.580364-36.142546 41.495273-12.334545 7.214545-90.740364 29.754182-93.905454 30.242909a23.272727 23.272727 0 1 1-7.016727-46.021818c2.362182-0.349091 86.993455-10.472727 95.185454-42.612364 5.911273-23.214545-13.451636-34.56-78.743273-58.298181C43.264 371.118545-6.109091 306.734545 4.328727 245.480727c13.149091-77.207273 50.676364-122.763636 143.069091-133.527272 34.676364-4.049455 73.332364 3.863273 114.955637 20.922181 36.805818 15.092364 69.725091 33.303273 102.004363 55.761455z m172.602182 24.727273L377.250909 490.007273a65.140364 65.140364 0 0 0 23.831273 88.994909l552.145454 318.789818a65.140364 65.140364 0 0 0 88.994909-23.854545l159.709091-276.631273a65.140364 65.140364 0 0 0-23.831272-88.994909l-552.145455-318.789818a65.140364 65.140364 0 0 0-88.994909 23.854545z" p-id="2298"></path><path d="M625.373091 475.089455l-28.532364 49.419636-29.940363-17.28 74.449454-128.965818 44.916364 25.937454c14.929455 8.610909 24.785455 18.909091 29.521454 30.859637 4.759273 11.962182 3.665455 23.924364-3.258181 35.909818-3.84 6.679273-8.901818 11.392-15.185455 14.149818-6.272 2.746182-13.707636 3.653818-22.295273 2.711273 6.621091 6.807273 10.146909 13.824 10.589091 21.050182 0.430545 7.214545-1.594182 14.72-6.097454 22.516363l-4.701091 8.145455c-1.943273 3.374545-3.665455 7.493818-5.143273 12.392727-1.489455 4.887273-1.512727 8.96-0.093091 12.218182l-1.024 1.780363L637.672727 548.072727c-1.314909-3.188364-0.989091-7.296 0.965818-12.311272 1.943273-5.015273 4.096-9.565091 6.446546-13.637819l4.503273-7.796363c3.549091-6.132364 4.631273-11.764364 3.258181-16.884364-1.373091-5.12-5.189818-9.495273-11.450181-13.114182l-16.023273-9.250909z m13.288727-23.028364l15.150546 8.738909c6.016 3.490909 11.415273 4.770909 16.197818 3.863273 4.770909-0.907636 8.634182-3.921455 11.601454-9.064728 3.037091-5.248 3.84-10.437818 2.420364-15.546181-1.408-5.12-5.108364-9.390545-11.066182-12.823273l-14.976-8.645818-19.316363 33.477818z m153.949091 116.270545L745.402182 541.090909l-29.975273 51.898182-29.928727-17.28 74.449454-128.954182 86.178909 49.757091-13.288727 23.028364-56.250182-32.465455L758.690909 518.050909l47.208727 27.252364-13.288727 23.04z m28.741818 85.806546l-29.835636-17.221818 74.449454-128.965819 29.847273 17.221819-74.449454 128.965818z m25.344 14.626909L921.134545 539.810909l47.208728 27.252364c15.173818 8.762182 25.018182 21.038545 29.521454 36.829091 4.503273 15.778909 2.292364 31.418182-6.632727 46.882909l-13.405091 23.202909c-8.96 15.534545-21.410909 25.274182-37.317818 29.242182-15.906909 3.956364-31.441455 1.559273-46.615273-7.202909l-47.208727-27.252364z m91.089455-88.645818l-47.860364 82.909091 17.268364 9.960727c6.795636 3.921455 13.986909 4.375273 21.597091 1.373091 7.598545-3.013818 13.940364-8.913455 19.025454-17.710546l13.498182-23.389091c5.003636-8.680727 6.912-17.058909 5.725091-25.157818-1.198545-8.087273-5.189818-14.091636-11.985455-18.013091l-17.268363-9.972363z" p-id="2299"></path></svg>